<svg version="1.1" xmlns="http://www.w3.org/2000/svg" viewBox="0 0 196.79998779296875 76.79998779296875" width="590.3999633789062" height="230.39996337890625">
  <!-- svg-source:excalidraw -->
  
  <defs>
    <style class="style-fonts">
      @font-face {
        font-family: "Virgil";
        src: url("https://excalidraw.com/Virgil.woff2");
      }
      @font-face {
        font-family: "Cascadia";
        src: url("https://excalidraw.com/Cascadia.woff2");
      }
      @font-face {
        font-family: "Assistant";
        src: url("https://excalidraw.com/Assistant-Regular.woff2");
      }
    </style>
    
  </defs>
  <rect x="0" y="0" width="196.79998779296875" height="76.79998779296875" fill="#ffffff"></rect><g stroke-linecap="round" transform="translate(10 10) rotate(0 88.39999389648438 28.399993896484375)"><path d="M14.2 0 C64.19 0.43, 116.58 0.52, 162.6 0 M14.2 0 C63.91 1.02, 113.85 0.24, 162.6 0 M162.6 0 C170.77 1.9, 176.07 4.31, 176.8 14.2 M162.6 0 C173.16 1.57, 178.12 5, 176.8 14.2 M176.8 14.2 C175.06 26.67, 178.52 36.78, 176.8 42.6 M176.8 14.2 C176.83 22.16, 175.77 31.54, 176.8 42.6 M176.8 42.6 C177.76 52.75, 173.17 56.49, 162.6 56.8 M176.8 42.6 C175.66 54.29, 169.92 58.05, 162.6 56.8 M162.6 56.8 C115.19 57.65, 64.91 57.45, 14.2 56.8 M162.6 56.8 C126.04 57.15, 88.32 58.37, 14.2 56.8 M14.2 56.8 C6.02 58.22, 1.28 50.47, 0 42.6 M14.2 56.8 C4.4 56.79, 1.82 53.28, 0 42.6 M0 42.6 C1.23 32.5, -0.43 23.41, 0 14.2 M0 42.6 C0.55 32.88, -0.14 22.08, 0 14.2 M0 14.2 C1.12 5.38, 6.66 0.32, 14.2 0 M0 14.2 C0.4 6.7, 2.95 1.6, 14.2 0" stroke="#1e1e1e" stroke-width="2" fill="none"></path></g><g transform="translate(68.4000244140625 26.799957275390625) rotate(0 26.91997528076172 12.5)"><text x="0" y="0" font-family="Virgil, Segoe UI Emoji" font-size="20px" fill="#1e1e1e" text-anchor="start" style="white-space: pre;" direction="ltr" dominant-baseline="text-before-edge">ToDo</text></g></svg>